<?xml version="1.0" encoding="utf-8" standalone="no"?>
<!DOCTYPE svg PUBLIC "-//W3C//DTD SVG 1.1//EN"
  "http://www.w3.org/Graphics/SVG/1.1/DTD/svg11.dtd">
<svg xmlns:xlink="http://www.w3.org/1999/xlink" width="944.39952pt" height="353.99952pt" viewBox="0 0 944.39952 353.99952" xmlns="http://www.w3.org/2000/svg" version="1.1">
 <metadata>
  <rdf:RDF xmlns:dc="http://purl.org/dc/elements/1.1/" xmlns:cc="http://creativecommons.org/ns#" xmlns:rdf="http://www.w3.org/1999/02/22-rdf-syntax-ns#">
   <cc:Work>
    <dc:type rdf:resource="http://purl.org/dc/dcmitype/StillImage"/>
    <dc:date>2026-09-21T16:15:25.687484</dc:date>
    <dc:format>image/svg+xml</dc:format>
    <dc:creator>
     <cc:Agent>
      <dc:title>Matplotlib v3.11.2, https://matplotlib.org/</dc:title>
     </cc:Agent>
    </dc:creator>
   </cc:Work>
  </rdf:RDF>
 </metadata>
 <defs>
  <style type="text/css">*{stroke-linejoin: round; stroke-linecap: butt}</style>
 </defs>
 <g id="figure_1">
  <g id="patch_1">
   <path d="M 0 353.99952 
L 944.39952 353.99952 
L 944.39952 0 
L 0 0 
z
" style="fill: #ffffff"/>
  </g>
  <g id="axes_1">
   <g id="patch_2">
    <path d="M 45.967188 315.798739 
L 336.551298 315.798739 
L 336.551298 57.12423 
L 45.967188 57.12423 
z
" style="fill: #ffffff"/>
   </g>
   <g id="matplotlib.axis_1">
    <g id="xtick_1">
     <g id="line2d_1">
      <path d="M 59.175556 315.798739 
L 59.175556 57.12423 
" clip-path="url(#pa822a96c43)" style="fill: none; stroke: #b0b0b0; stroke-opacity: 0.2; stroke-width: 0.8; stroke-linecap: square"/>
     </g>
     <g id="line2d_2">
      <defs>
       <path id="m1072594b9a" d="M 0 0 
L 0 3.5 
" style="stroke: #000000; stroke-width: 0.8"/>
      </defs>
      <g>
       <use xlink:href="#m1072594b9a" x="59.175556" y="315.798739" style="stroke: #000000; stroke-width: 0.8"/>
      </g>
     </g>
     <g id="text_1">
      <!-- 1.5 -->
      <g transform="translate(51.223994 330.396395) scale(0.1 -0.1)">
       <defs>
        <path id="DejaVuSans-14" d="M 794 531 
L 1825 531 
L 1825 4091 
L 703 3866 
L 703 4441 
L 1819 4666 
L 2450 4666 
L 2450 531 
L 3481 531 
L 3481 0 
L 794 0 
L 794 531 
z
" transform="scale(0.015625)"/>
        <path id="DejaVuSans-11" d="M 684 794 
L 1344 794 
L 1344 0 
L 684 0 
L 684 794 
z
" transform="scale(0.015625)"/>
        <path id="DejaVuSans-18" d="M 691 4666 
L 3169 4666 
L 3169 4134 
L 1269 4134 
L 1269 2991 
Q 1406 3038 1543 3061 
Q 1681 3084 1819 3084 
Q 2600 3084 3056 2656 
Q 3513 2228 3513 1497 
Q 3513 744 3044 326 
Q 2575 -91 1722 -91 
Q 1428 -91 1123 -41 
Q 819 9 494 109 
L 494 744 
Q 775 591 1075 516 
Q 1375 441 1709 441 
Q 2250 441 2565 725 
Q 2881 1009 2881 1497 
Q 2881 1984 2565 2268 
Q 2250 2553 1709 2553 
Q 1456 2553 1204 2497 
Q 953 2441 691 2322 
L 691 4666 
z
" transform="scale(0.015625)"/>
       </defs>
       <use xlink:href="#DejaVuSans-14"/>
       <use xlink:href="#DejaVuSans-11" transform="translate(63.625 0)"/>
       <use xlink:href="#DejaVuSans-18" transform="translate(95.40625 0)"/>
      </g>
     </g>
    </g>
    <g id="xtick_2">
     <g id="line2d_3">
      <path d="M 125.2174 315.798739 
L 125.2174 57.12423 
" clip-path="url(#pa822a96c43)" style="fill: none; stroke: #b0b0b0; stroke-opacity: 0.2; stroke-width: 0.8; stroke-linecap: square"/>
     </g>
     <g id="line2d_4">
      <g>
       <use xlink:href="#m1072594b9a" x="125.2174" y="315.798739" style="stroke: #000000; stroke-width: 0.8"/>
      </g>
     </g>
     <g id="text_2">
      <!-- 2.0 -->
      <g transform="translate(117.265837 330.396395) scale(0.1 -0.1)">
       <defs>
        <path id="DejaVuSans-15" d="M 1228 531 
L 3431 531 
L 3431 0 
L 469 0 
L 469 531 
Q 828 903 1448 1529 
Q 2069 2156 2228 2338 
Q 2531 2678 2651 2914 
Q 2772 3150 2772 3378 
Q 2772 3750 2511 3984 
Q 2250 4219 1831 4219 
Q 1534 4219 1204 4116 
Q 875 4013 500 3803 
L 500 4441 
Q 881 4594 1212 4672 
Q 1544 4750 1819 4750 
Q 2544 4750 2975 4387 
Q 3406 4025 3406 3419 
Q 3406 3131 3298 2873 
Q 3191 2616 2906 2266 
Q 2828 2175 2409 1742 
Q 1991 1309 1228 531 
z
" transform="scale(0.015625)"/>
        <path id="DejaVuSans-13" d="M 2034 4250 
Q 1547 4250 1301 3770 
Q 1056 3291 1056 2328 
Q 1056 1369 1301 889 
Q 1547 409 2034 409 
Q 2525 409 2770 889 
Q 3016 1369 3016 2328 
Q 3016 3291 2770 3770 
Q 2525 4250 2034 4250 
z
M 2034 4750 
Q 2819 4750 3233 4129 
Q 3647 3509 3647 2328 
Q 3647 1150 3233 529 
Q 2819 -91 2034 -91 
Q 1250 -91 836 529 
Q 422 1150 422 2328 
Q 422 3509 836 4129 
Q 1250 4750 2034 4750 
z
" transform="scale(0.015625)"/>
       </defs>
       <use xlink:href="#DejaVuSans-15"/>
       <use xlink:href="#DejaVuSans-11" transform="translate(63.625 0)"/>
       <use xlink:href="#DejaVuSans-13" transform="translate(95.40625 0)"/>
      </g>
     </g>
    </g>
    <g id="xtick_3">
     <g id="line2d_5">
      <path d="M 191.259243 315.798739 
L 191.259243 57.12423 
" clip-path="url(#pa822a96c43)" style="fill: none; stroke: #b0b0b0; stroke-opacity: 0.2; stroke-width: 0.8; stroke-linecap: square"/>
     </g>
     <g id="line2d_6">
      <g>
       <use xlink:href="#m1072594b9a" x="191.259243" y="315.798739" style="stroke: #000000; stroke-width: 0.8"/>
      </g>
     </g>
     <g id="text_3">
      <!-- 2.5 -->
      <g transform="translate(183.30768 330.396395) scale(0.1 -0.1)">
       <use xlink:href="#DejaVuSans-15"/>
       <use xlink:href="#DejaVuSans-11" transform="translate(63.625 0)"/>
       <use xlink:href="#DejaVuSans-18" transform="translate(95.40625 0)"/>
      </g>
     </g>
    </g>
    <g id="xtick_4">
     <g id="line2d_7">
      <path d="M 257.301086 315.798739 
L 257.301086 57.12423 
" clip-path="url(#pa822a96c43)" style="fill: none; stroke: #b0b0b0; stroke-opacity: 0.2; stroke-width: 0.8; stroke-linecap: square"/>
     </g>
     <g id="line2d_8">
      <g>
       <use xlink:href="#m1072594b9a" x="257.301086" y="315.798739" style="stroke: #000000; stroke-width: 0.8"/>
      </g>
     </g>
     <g id="text_4">
      <!-- 3.0 -->
      <g transform="translate(249.349524 330.396395) scale(0.1 -0.1)">
       <defs>
        <path id="DejaVuSans-16" d="M 2597 2516 
Q 3050 2419 3304 2112 
Q 3559 1806 3559 1356 
Q 3559 666 3084 287 
Q 2609 -91 1734 -91 
Q 1441 -91 1130 -33 
Q 819 25 488 141 
L 488 750 
Q 750 597 1062 519 
Q 1375 441 1716 441 
Q 2309 441 2620 675 
Q 2931 909 2931 1356 
Q 2931 1769 2642 2001 
Q 2353 2234 1838 2234 
L 1294 2234 
L 1294 2753 
L 1863 2753 
Q 2328 2753 2575 2939 
Q 2822 3125 2822 3475 
Q 2822 3834 2567 4026 
Q 2313 4219 1838 4219 
Q 1578 4219 1281 4162 
Q 984 4106 628 3988 
L 628 4550 
Q 988 4650 1302 4700 
Q 1616 4750 1894 4750 
Q 2613 4750 3031 4423 
Q 3450 4097 3450 3541 
Q 3450 3153 3228 2886 
Q 3006 2619 2597 2516 
z
" transform="scale(0.015625)"/>
       </defs>
       <use xlink:href="#DejaVuSans-16"/>
       <use xlink:href="#DejaVuSans-11" transform="translate(63.625 0)"/>
       <use xlink:href="#DejaVuSans-13" transform="translate(95.40625 0)"/>
      </g>
     </g>
    </g>
    <g id="xtick_5">
     <g id="line2d_9">
      <path d="M 323.34293 315.798739 
L 323.34293 57.12423 
" clip-path="url(#pa822a96c43)" style="fill: none; stroke: #b0b0b0; stroke-opacity: 0.2; stroke-width: 0.8; stroke-linecap: square"/>
     </g>
     <g id="line2d_10">
      <g>
       <use xlink:href="#m1072594b9a" x="323.34293" y="315.798739" style="stroke: #000000; stroke-width: 0.8"/>
      </g>
     </g>
     <g id="text_5">
      <!-- 3.5 -->
      <g transform="translate(315.391367 330.396395) scale(0.1 -0.1)">
       <use xlink:href="#DejaVuSans-16"/>
       <use xlink:href="#DejaVuSans-11" transform="translate(63.625 0)"/>
       <use xlink:href="#DejaVuSans-18" transform="translate(95.40625 0)"/>
      </g>
     </g>
    </g>
    <g id="text_6">
     <!-- Higher RR -->
     <g transform="translate(166.097524 344.397176) scale(0.1 -0.1)">
      <defs>
       <path id="DejaVuSans-2b" d="M 628 4666 
L 1259 4666 
L 1259 2753 
L 3553 2753 
L 3553 4666 
L 4184 4666 
L 4184 0 
L 3553 0 
L 3553 2222 
L 1259 2222 
L 1259 0 
L 628 0 
L 628 4666 
z
" transform="scale(0.015625)"/>
       <path id="DejaVuSans-4c" d="M 603 3500 
L 1178 3500 
L 1178 0 
L 603 0 
L 603 3500 
z
M 603 4863 
L 1178 4863 
L 1178 4134 
L 603 4134 
L 603 4863 
z
" transform="scale(0.015625)"/>
       <path id="DejaVuSans-4a" d="M 2906 1791 
Q 2906 2416 2648 2759 
Q 2391 3103 1925 3103 
Q 1463 3103 1205 2759 
Q 947 2416 947 1791 
Q 947 1169 1205 825 
Q 1463 481 1925 481 
Q 2391 481 2648 825 
Q 2906 1169 2906 1791 
z
M 3481 434 
Q 3481 -459 3084 -895 
Q 2688 -1331 1869 -1331 
Q 1566 -1331 1297 -1286 
Q 1028 -1241 775 -1147 
L 775 -588 
Q 1028 -725 1275 -790 
Q 1522 -856 1778 -856 
Q 2344 -856 2625 -561 
Q 2906 -266 2906 331 
L 2906 616 
Q 2728 306 2450 153 
Q 2172 0 1784 0 
Q 1141 0 747 490 
Q 353 981 353 1791 
Q 353 2603 747 3093 
Q 1141 3584 1784 3584 
Q 2172 3584 2450 3431 
Q 2728 3278 2906 2969 
L 2906 3500 
L 3481 3500 
L 3481 434 
z
" transform="scale(0.015625)"/>
       <path id="DejaVuSans-4b" d="M 3513 2113 
L 3513 0 
L 2938 0 
L 2938 2094 
Q 2938 2591 2744 2837 
Q 2550 3084 2163 3084 
Q 1697 3084 1428 2787 
Q 1159 2491 1159 1978 
L 1159 0 
L 581 0 
L 581 4863 
L 1159 4863 
L 1159 2956 
Q 1366 3272 1645 3428 
Q 1925 3584 2291 3584 
Q 2894 3584 3203 3211 
Q 3513 2838 3513 2113 
z
" transform="scale(0.015625)"/>
       <path id="DejaVuSans-48" d="M 3597 1894 
L 3597 1613 
L 953 1613 
Q 991 1019 1311 708 
Q 1631 397 2203 397 
Q 2534 397 2845 478 
Q 3156 559 3463 722 
L 3463 178 
Q 3153 47 2828 -22 
Q 2503 -91 2169 -91 
Q 1331 -91 842 396 
Q 353 884 353 1716 
Q 353 2575 817 3079 
Q 1281 3584 2069 3584 
Q 2775 3584 3186 3129 
Q 3597 2675 3597 1894 
z
M 3022 2063 
Q 3016 2534 2758 2815 
Q 2500 3097 2075 3097 
Q 1594 3097 1305 2825 
Q 1016 2553 972 2059 
L 3022 2063 
z
" transform="scale(0.015625)"/>
       <path id="DejaVuSans-55" d="M 2631 2963 
Q 2534 3019 2420 3045 
Q 2306 3072 2169 3072 
Q 1681 3072 1420 2755 
Q 1159 2438 1159 1844 
L 1159 0 
L 581 0 
L 581 3500 
L 1159 3500 
L 1159 2956 
Q 1341 3275 1631 3429 
Q 1922 3584 2338 3584 
Q 2397 3584 2469 3576 
Q 2541 3569 2628 3553 
L 2631 2963 
z
" transform="scale(0.015625)"/>
       <path id="DejaVuSans-3" transform="scale(0.015625)"/>
       <path id="DejaVuSans-35" d="M 2841 2188 
Q 3044 2119 3236 1894 
Q 3428 1669 3622 1275 
L 4263 0 
L 3584 0 
L 2988 1197 
Q 2756 1666 2539 1819 
Q 2322 1972 1947 1972 
L 1259 1972 
L 1259 0 
L 628 0 
L 628 4666 
L 2053 4666 
Q 2853 4666 3247 4331 
Q 3641 3997 3641 3322 
Q 3641 2881 3436 2590 
Q 3231 2300 2841 2188 
z
M 1259 4147 
L 1259 2491 
L 2053 2491 
Q 2509 2491 2742 2702 
Q 2975 2913 2975 3322 
Q 2975 3731 2742 3939 
Q 2509 4147 2053 4147 
L 1259 4147 
z
" transform="scale(0.015625)"/>
      </defs>
      <use xlink:href="#DejaVuSans-2b"/>
      <use xlink:href="#DejaVuSans-4c" transform="translate(75.203125 0)"/>
      <use xlink:href="#DejaVuSans-4a" transform="translate(102.984375 0)"/>
      <use xlink:href="#DejaVuSans-4b" transform="translate(166.46875 0)"/>
      <use xlink:href="#DejaVuSans-48" transform="translate(229.84375 0)"/>
      <use xlink:href="#DejaVuSans-55" transform="translate(291.375 0)"/>
      <use xlink:href="#DejaVuSans-3" transform="translate(332.484375 0)"/>
      <use xlink:href="#DejaVuSans-35" transform="translate(364.265625 0)"/>
      <use xlink:href="#DejaVuSans-35" transform="translate(433.75 0)"/>
     </g>
    </g>
   </g>
   <g id="matplotlib.axis_2">
    <g id="ytick_1">
     <g id="line2d_11">
      <path d="M 45.967188 268.76701 
L 336.551298 268.76701 
" clip-path="url(#pa822a96c43)" style="fill: none; stroke: #b0b0b0; stroke-opacity: 0.2; stroke-width: 0.8; stroke-linecap: square"/>
     </g>
     <g id="line2d_12">
      <defs>
       <path id="me5781d6c81" d="M 0 0 
L -3.5 0 
" style="stroke: #000000; stroke-width: 0.8"/>
      </defs>
      <g>
       <use xlink:href="#me5781d6c81" x="45.967188" y="268.76701" style="stroke: #000000; stroke-width: 0.8"/>
      </g>
     </g>
     <g id="text_7">
      <!-- 25.0% -->
      <g transform="translate(7.2 272.565838) scale(0.1 -0.1)">
       <defs>
        <path id="DejaVuSans-8" d="M 4653 2053 
Q 4381 2053 4226 1822 
Q 4072 1591 4072 1178 
Q 4072 772 4226 539 
Q 4381 306 4653 306 
Q 4919 306 5073 539 
Q 5228 772 5228 1178 
Q 5228 1588 5073 1820 
Q 4919 2053 4653 2053 
z
M 4653 2450 
Q 5147 2450 5437 2106 
Q 5728 1763 5728 1178 
Q 5728 594 5436 251 
Q 5144 -91 4653 -91 
Q 4153 -91 3862 251 
Q 3572 594 3572 1178 
Q 3572 1766 3864 2108 
Q 4156 2450 4653 2450 
z
M 1428 4353 
Q 1159 4353 1004 4120 
Q 850 3888 850 3481 
Q 850 3069 1003 2837 
Q 1156 2606 1428 2606 
Q 1700 2606 1854 2837 
Q 2009 3069 2009 3481 
Q 2009 3884 1853 4118 
Q 1697 4353 1428 4353 
z
M 4250 4750 
L 4750 4750 
L 1831 -91 
L 1331 -91 
L 4250 4750 
z
M 1428 4750 
Q 1922 4750 2215 4408 
Q 2509 4066 2509 3481 
Q 2509 2891 2217 2550 
Q 1925 2209 1428 2209 
Q 931 2209 642 2551 
Q 353 2894 353 3481 
Q 353 4063 643 4406 
Q 934 4750 1428 4750 
z
" transform="scale(0.015625)"/>
       </defs>
       <use xlink:href="#DejaVuSans-15"/>
       <use xlink:href="#DejaVuSans-18" transform="translate(63.625 0)"/>
       <use xlink:href="#DejaVuSans-11" transform="translate(127.25 0)"/>
       <use xlink:href="#DejaVuSans-13" transform="translate(159.03125 0)"/>
       <use xlink:href="#DejaVuSans-8" transform="translate(222.65625 0)"/>
      </g>
     </g>
    </g>
    <g id="ytick_2">
     <g id="line2d_13">
      <path d="M 45.967188 214.680522 
L 336.551298 214.680522 
" clip-path="url(#pa822a96c43)" style="fill: none; stroke: #b0b0b0; stroke-opacity: 0.2; stroke-width: 0.8; stroke-linecap: square"/>
     </g>
     <g id="line2d_14">
      <g>
       <use xlink:href="#me5781d6c81" x="45.967188" y="214.680522" style="stroke: #000000; stroke-width: 0.8"/>
      </g>
     </g>
     <g id="text_8">
      <!-- 30.0% -->
      <g transform="translate(7.2 218.47935) scale(0.1 -0.1)">
       <use xlink:href="#DejaVuSans-16"/>
       <use xlink:href="#DejaVuSans-13" transform="translate(63.625 0)"/>
       <use xlink:href="#DejaVuSans-11" transform="translate(127.25 0)"/>
       <use xlink:href="#DejaVuSans-13" transform="translate(159.03125 0)"/>
       <use xlink:href="#DejaVuSans-8" transform="translate(222.65625 0)"/>
      </g>
     </g>
    </g>
    <g id="ytick_3">
     <g id="line2d_15">
      <path d="M 45.967188 160.594033 
L 336.551298 160.594033 
" clip-path="url(#pa822a96c43)" style="fill: none; stroke: #b0b0b0; stroke-opacity: 0.2; stroke-width: 0.8; stroke-linecap: square"/>
     </g>
     <g id="line2d_16">
      <g>
       <use xlink:href="#me5781d6c81" x="45.967188" y="160.594033" style="stroke: #000000; stroke-width: 0.8"/>
      </g>
     </g>
     <g id="text_9">
      <!-- 35.0% -->
      <g transform="translate(7.2 164.392862) scale(0.1 -0.1)">
       <use xlink:href="#DejaVuSans-16"/>
       <use xlink:href="#DejaVuSans-18" transform="translate(63.625 0)"/>
       <use xlink:href="#DejaVuSans-11" transform="translate(127.25 0)"/>
       <use xlink:href="#DejaVuSans-13" transform="translate(159.03125 0)"/>
       <use xlink:href="#DejaVuSans-8" transform="translate(222.65625 0)"/>
      </g>
     </g>
    </g>
    <g id="ytick_4">
     <g id="line2d_17">
      <path d="M 45.967188 106.507545 
L 336.551298 106.507545 
" clip-path="url(#pa822a96c43)" style="fill: none; stroke: #b0b0b0; stroke-opacity: 0.2; stroke-width: 0.8; stroke-linecap: square"/>
     </g>
     <g id="line2d_18">
      <g>
       <use xlink:href="#me5781d6c81" x="45.967188" y="106.507545" style="stroke: #000000; stroke-width: 0.8"/>
      </g>
     </g>
     <g id="text_10">
      <!-- 40.0% -->
      <g transform="translate(7.2 110.306373) scale(0.1 -0.1)">
       <defs>
        <path id="DejaVuSans-17" d="M 2419 4116 
L 825 1625 
L 2419 1625 
L 2419 4116 
z
M 2253 4666 
L 3047 4666 
L 3047 1625 
L 3713 1625 
L 3713 1100 
L 3047 1100 
L 3047 0 
L 2419 0 
L 2419 1100 
L 313 1100 
L 313 1709 
L 2253 4666 
z
" transform="scale(0.015625)"/>
       </defs>
       <use xlink:href="#DejaVuSans-17"/>
       <use xlink:href="#DejaVuSans-13" transform="translate(63.625 0)"/>
       <use xlink:href="#DejaVuSans-11" transform="translate(127.25 0)"/>
       <use xlink:href="#DejaVuSans-13" transform="translate(159.03125 0)"/>
       <use xlink:href="#DejaVuSans-8" transform="translate(222.65625 0)"/>
      </g>
     </g>
    </g>
   </g>
   <g id="line2d_19">
    <path d="M 59.175556 233.493213 
L 92.196478 292.282874 
L 125.2174 257.009078 
L 158.238321 257.009078 
L 191.259243 221.735281 
L 224.280165 127.671823 
L 257.301086 198.219417 
L 290.322008 186.461484 
L 323.34293 151.187688 
" clip-path="url(#pa822a96c43)" style="fill: none; stroke: #7353a6; stroke-width: 1.5; stroke-linecap: square"/>
    <defs>
     <path id="m5d55e01d61" d="M 0 2 
C 0.530406 2 1.03916 1.789267 1.414214 1.414214 
C 1.789267 1.03916 2 0.530406 2 0 
C 2 -0.530406 1.789267 -1.03916 1.414214 -1.414214 
C 1.03916 -1.789267 0.530406 -2 0 -2 
C -0.530406 -2 -1.03916 -1.789267 -1.414214 -1.414214 
C -1.789267 -1.03916 -2 -0.530406 -2 0 
C -2 0.530406 -1.789267 1.03916 -1.414214 1.414214 
C -1.03916 1.789267 -0.530406 2 0 2 
z
" style="stroke: #7353a6"/>
    </defs>
    <g clip-path="url(#pa822a96c43)">
     <use xlink:href="#m5d55e01d61" x="59.175556" y="233.493213" style="fill: #7353a6; stroke: #7353a6"/>
     <use xlink:href="#m5d55e01d61" x="92.196478" y="292.282874" style="fill: #7353a6; stroke: #7353a6"/>
     <use xlink:href="#m5d55e01d61" x="125.2174" y="257.009078" style="fill: #7353a6; stroke: #7353a6"/>
     <use xlink:href="#m5d55e01d61" x="158.238321" y="257.009078" style="fill: #7353a6; stroke: #7353a6"/>
     <use xlink:href="#m5d55e01d61" x="191.259243" y="221.735281" style="fill: #7353a6; stroke: #7353a6"/>
     <use xlink:href="#m5d55e01d61" x="224.280165" y="127.671823" style="fill: #7353a6; stroke: #7353a6"/>
     <use xlink:href="#m5d55e01d61" x="257.301086" y="198.219417" style="fill: #7353a6; stroke: #7353a6"/>
     <use xlink:href="#m5d55e01d61" x="290.322008" y="186.461484" style="fill: #7353a6; stroke: #7353a6"/>
     <use xlink:href="#m5d55e01d61" x="323.34293" y="151.187688" style="fill: #7353a6; stroke: #7353a6"/>
    </g>
   </g>
   <g id="line2d_20">
    <path d="M 59.175556 209.977349 
L 92.196478 233.493213 
L 125.2174 209.977349 
L 158.238321 209.977349 
L 191.259243 186.461484 
L 224.280165 139.429756 
L 257.301086 186.461484 
L 290.322008 162.94562 
L 323.34293 139.429756 
" clip-path="url(#pa822a96c43)" style="fill: none; stroke: #087e8b; stroke-width: 1.5; stroke-linecap: square"/>
    <defs>
     <path id="mdcfcfa1183" d="M 0 2 
C 0.530406 2 1.03916 1.789267 1.414214 1.414214 
C 1.789267 1.03916 2 0.530406 2 0 
C 2 -0.530406 1.789267 -1.03916 1.414214 -1.414214 
C 1.03916 -1.789267 0.530406 -2 0 -2 
C -0.530406 -2 -1.03916 -1.789267 -1.414214 -1.414214 
C -1.789267 -1.03916 -2 -0.530406 -2 0 
C -2 0.530406 -1.789267 1.03916 -1.414214 1.414214 
C -1.03916 1.789267 -0.530406 2 0 2 
z
" style="stroke: #087e8b"/>
    </defs>
    <g clip-path="url(#pa822a96c43)">
     <use xlink:href="#mdcfcfa1183" x="59.175556" y="209.977349" style="fill: #087e8b; stroke: #087e8b"/>
     <use xlink:href="#mdcfcfa1183" x="92.196478" y="233.493213" style="fill: #087e8b; stroke: #087e8b"/>
     <use xlink:href="#mdcfcfa1183" x="125.2174" y="209.977349" style="fill: #087e8b; stroke: #087e8b"/>
     <use xlink:href="#mdcfcfa1183" x="158.238321" y="209.977349" style="fill: #087e8b; stroke: #087e8b"/>
     <use xlink:href="#mdcfcfa1183" x="191.259243" y="186.461484" style="fill: #087e8b; stroke: #087e8b"/>
     <use xlink:href="#mdcfcfa1183" x="224.280165" y="139.429756" style="fill: #087e8b; stroke: #087e8b"/>
     <use xlink:href="#mdcfcfa1183" x="257.301086" y="186.461484" style="fill: #087e8b; stroke: #087e8b"/>
     <use xlink:href="#mdcfcfa1183" x="290.322008" y="162.94562" style="fill: #087e8b; stroke: #087e8b"/>
     <use xlink:href="#mdcfcfa1183" x="323.34293" y="139.429756" style="fill: #087e8b; stroke: #087e8b"/>
    </g>
   </g>
   <g id="line2d_21">
    <path d="M 59.175556 139.429756 
L 92.196478 151.187688 
L 125.2174 139.429756 
L 158.238321 139.429756 
L 191.259243 127.671823 
L 224.280165 104.155959 
L 257.301086 127.671823 
L 290.322008 115.913891 
L 323.34293 104.155959 
" clip-path="url(#pa822a96c43)" style="fill: none; stroke: #c05621; stroke-width: 1.5; stroke-linecap: square"/>
    <defs>
     <path id="m82ae7aecbc" d="M 0 2 
C 0.530406 2 1.03916 1.789267 1.414214 1.414214 
C 1.789267 1.03916 2 0.530406 2 0 
C 2 -0.530406 1.789267 -1.03916 1.414214 -1.414214 
C 1.03916 -1.789267 0.530406 -2 0 -2 
C -0.530406 -2 -1.03916 -1.789267 -1.414214 -1.414214 
C -1.789267 -1.03916 -2 -0.530406 -2 0 
C -2 0.530406 -1.789267 1.03916 -1.414214 1.414214 
C -1.03916 1.789267 -0.530406 2 0 2 
z
" style="stroke: #c05621"/>
    </defs>
    <g clip-path="url(#pa822a96c43)">
     <use xlink:href="#m82ae7aecbc" x="59.175556" y="139.429756" style="fill: #c05621; stroke: #c05621"/>
     <use xlink:href="#m82ae7aecbc" x="92.196478" y="151.187688" style="fill: #c05621; stroke: #c05621"/>
     <use xlink:href="#m82ae7aecbc" x="125.2174" y="139.429756" style="fill: #c05621; stroke: #c05621"/>
     <use xlink:href="#m82ae7aecbc" x="158.238321" y="139.429756" style="fill: #c05621; stroke: #c05621"/>
     <use xlink:href="#m82ae7aecbc" x="191.259243" y="127.671823" style="fill: #c05621; stroke: #c05621"/>
     <use xlink:href="#m82ae7aecbc" x="224.280165" y="104.155959" style="fill: #c05621; stroke: #c05621"/>
     <use xlink:href="#m82ae7aecbc" x="257.301086" y="127.671823" style="fill: #c05621; stroke: #c05621"/>
     <use xlink:href="#m82ae7aecbc" x="290.322008" y="115.913891" style="fill: #c05621; stroke: #c05621"/>
     <use xlink:href="#m82ae7aecbc" x="323.34293" y="104.155959" style="fill: #c05621; stroke: #c05621"/>
    </g>
   </g>
   <g id="line2d_22">
    <path d="M 45.967188 162.94562 
L 336.551298 162.94562 
" clip-path="url(#pa822a96c43)" style="fill: none; stroke-dasharray: 5.55,2.4; stroke-dashoffset: 0; stroke: #222222; stroke-width: 1.5"/>
   </g>
   <g id="line2d_23">
    <path d="M 45.967188 68.882162 
L 336.551298 68.882162 
" clip-path="url(#pa822a96c43)" style="fill: none; stroke-dasharray: 1.5,2.475; stroke-dashoffset: 0; stroke: #999999; stroke-width: 1.5"/>
   </g>
   <g id="patch_3">
    <path d="M 45.967188 315.798739 
L 45.967188 57.12423 
" style="fill: none; stroke: #000000; stroke-width: 0.8; stroke-linejoin: miter; stroke-linecap: square"/>
   </g>
   <g id="patch_4">
    <path d="M 45.967187 315.798739 
L 336.551298 315.798739 
" style="fill: none; stroke: #000000; stroke-width: 0.8; stroke-linejoin: miter; stroke-linecap: square"/>
   </g>
   <g id="text_11">
    <!-- Lower RR = 0.50 -->
    <g transform="translate(140.838618 51.12423) scale(0.12 -0.12)">
     <defs>
      <path id="DejaVuSans-2f" d="M 628 4666 
L 1259 4666 
L 1259 531 
L 3531 531 
L 3531 0 
L 628 0 
L 628 4666 
z
" transform="scale(0.015625)"/>
      <path id="DejaVuSans-52" d="M 1959 3097 
Q 1497 3097 1228 2736 
Q 959 2375 959 1747 
Q 959 1119 1226 758 
Q 1494 397 1959 397 
Q 2419 397 2687 759 
Q 2956 1122 2956 1747 
Q 2956 2369 2687 2733 
Q 2419 3097 1959 3097 
z
M 1959 3584 
Q 2709 3584 3137 3096 
Q 3566 2609 3566 1747 
Q 3566 888 3137 398 
Q 2709 -91 1959 -91 
Q 1206 -91 779 398 
Q 353 888 353 1747 
Q 353 2609 779 3096 
Q 1206 3584 1959 3584 
z
" transform="scale(0.015625)"/>
      <path id="DejaVuSans-5a" d="M 269 3500 
L 844 3500 
L 1563 769 
L 2278 3500 
L 2956 3500 
L 3675 769 
L 4391 3500 
L 4966 3500 
L 4050 0 
L 3372 0 
L 2619 2869 
L 1863 0 
L 1184 0 
L 269 3500 
z
" transform="scale(0.015625)"/>
      <path id="DejaVuSans-20" d="M 678 2906 
L 4684 2906 
L 4684 2381 
L 678 2381 
L 678 2906 
z
M 678 1631 
L 4684 1631 
L 4684 1100 
L 678 1100 
L 678 1631 
z
" transform="scale(0.015625)"/>
     </defs>
     <use xlink:href="#DejaVuSans-2f"/>
     <use xlink:href="#DejaVuSans-52" transform="translate(53.96875 0)"/>
     <use xlink:href="#DejaVuSans-5a" transform="translate(115.15625 0)"/>
     <use xlink:href="#DejaVuSans-48" transform="translate(196.9375 0)"/>
     <use xlink:href="#DejaVuSans-55" transform="translate(258.46875 0)"/>
     <use xlink:href="#DejaVuSans-3" transform="translate(299.578125 0)"/>
     <use xlink:href="#DejaVuSans-35" transform="translate(331.359375 0)"/>
     <use xlink:href="#DejaVuSans-35" transform="translate(400.84375 0)"/>
     <use xlink:href="#DejaVuSans-3" transform="translate(470.328125 0)"/>
     <use xlink:href="#DejaVuSans-20" transform="translate(502.109375 0)"/>
     <use xlink:href="#DejaVuSans-3" transform="translate(585.90625 0)"/>
     <use xlink:href="#DejaVuSans-13" transform="translate(617.6875 0)"/>
     <use xlink:href="#DejaVuSans-11" transform="translate(681.3125 0)"/>
     <use xlink:href="#DejaVuSans-18" transform="translate(713.09375 0)"/>
     <use xlink:href="#DejaVuSans-13" transform="translate(776.71875 0)"/>
    </g>
   </g>
   <g id="legend_1">
    <g id="patch_5">
     <path d="M 249.496298 311.798739 
L 330.951298 311.798739 
Q 332.551298 311.798739 332.551298 310.198739 
L 332.551298 250.995614 
Q 332.551298 249.395614 330.951298 249.395614 
L 249.496298 249.395614 
Q 247.896298 249.395614 247.896298 250.995614 
L 247.896298 310.198739 
Q 247.896298 311.798739 249.496298 311.798739 
z
" style="fill: #ffffff; opacity: 0.8; stroke: #cccccc; stroke-linejoin: miter"/>
    </g>
    <g id="line2d_24">
     <path d="M 251.096298 255.874364 
L 259.096298 255.874364 
L 267.096298 255.874364 
" style="fill: none; stroke: #7353a6; stroke-width: 1.5; stroke-linecap: square"/>
     <g>
      <use xlink:href="#m5d55e01d61" x="259.096298" y="255.874364" style="fill: #7353a6; stroke: #7353a6"/>
     </g>
    </g>
    <g id="text_12">
     <!-- 25% lower RR -->
     <g transform="translate(273.496298 258.674364) scale(0.08 -0.08)">
      <defs>
       <path id="DejaVuSans-4f" d="M 603 4863 
L 1178 4863 
L 1178 0 
L 603 0 
L 603 4863 
z
" transform="scale(0.015625)"/>
      </defs>
      <use xlink:href="#DejaVuSans-15"/>
      <use xlink:href="#DejaVuSans-18" transform="translate(63.625 0)"/>
      <use xlink:href="#DejaVuSans-8" transform="translate(127.25 0)"/>
      <use xlink:href="#DejaVuSans-3" transform="translate(222.265625 0)"/>
      <use xlink:href="#DejaVuSans-4f" transform="translate(254.046875 0)"/>
      <use xlink:href="#DejaVuSans-52" transform="translate(281.828125 0)"/>
      <use xlink:href="#DejaVuSans-5a" transform="translate(343.015625 0)"/>
      <use xlink:href="#DejaVuSans-48" transform="translate(424.796875 0)"/>
      <use xlink:href="#DejaVuSans-55" transform="translate(486.328125 0)"/>
      <use xlink:href="#DejaVuSans-3" transform="translate(527.4375 0)"/>
      <use xlink:href="#DejaVuSans-35" transform="translate(559.21875 0)"/>
      <use xlink:href="#DejaVuSans-35" transform="translate(628.703125 0)"/>
     </g>
    </g>
    <g id="line2d_25">
     <path d="M 251.096298 267.874989 
L 259.096298 267.874989 
L 267.096298 267.874989 
" style="fill: none; stroke: #087e8b; stroke-width: 1.5; stroke-linecap: square"/>
     <g>
      <use xlink:href="#mdcfcfa1183" x="259.096298" y="267.874989" style="fill: #087e8b; stroke: #087e8b"/>
     </g>
    </g>
    <g id="text_13">
     <!-- 50% lower RR -->
     <g transform="translate(273.496298 270.674989) scale(0.08 -0.08)">
      <use xlink:href="#DejaVuSans-18"/>
      <use xlink:href="#DejaVuSans-13" transform="translate(63.625 0)"/>
      <use xlink:href="#DejaVuSans-8" transform="translate(127.25 0)"/>
      <use xlink:href="#DejaVuSans-3" transform="translate(222.265625 0)"/>
      <use xlink:href="#DejaVuSans-4f" transform="translate(254.046875 0)"/>
      <use xlink:href="#DejaVuSans-52" transform="translate(281.828125 0)"/>
      <use xlink:href="#DejaVuSans-5a" transform="translate(343.015625 0)"/>
      <use xlink:href="#DejaVuSans-48" transform="translate(424.796875 0)"/>
      <use xlink:href="#DejaVuSans-55" transform="translate(486.328125 0)"/>
      <use xlink:href="#DejaVuSans-3" transform="translate(527.4375 0)"/>
      <use xlink:href="#DejaVuSans-35" transform="translate(559.21875 0)"/>
      <use xlink:href="#DejaVuSans-35" transform="translate(628.703125 0)"/>
     </g>
    </g>
    <g id="line2d_26">
     <path d="M 251.096298 279.875614 
L 259.096298 279.875614 
L 267.096298 279.875614 
" style="fill: none; stroke: #c05621; stroke-width: 1.5; stroke-linecap: square"/>
     <g>
      <use xlink:href="#m82ae7aecbc" x="259.096298" y="279.875614" style="fill: #c05621; stroke: #c05621"/>
     </g>
    </g>
    <g id="text_14">
     <!-- 75% lower RR -->
     <g transform="translate(273.496298 282.675614) scale(0.08 -0.08)">
      <defs>
       <path id="DejaVuSans-1a" d="M 525 4666 
L 3525 4666 
L 3525 4397 
L 1831 0 
L 1172 0 
L 2766 4134 
L 525 4134 
L 525 4666 
z
" transform="scale(0.015625)"/>
      </defs>
      <use xlink:href="#DejaVuSans-1a"/>
      <use xlink:href="#DejaVuSans-18" transform="translate(63.625 0)"/>
      <use xlink:href="#DejaVuSans-8" transform="translate(127.25 0)"/>
      <use xlink:href="#DejaVuSans-3" transform="translate(222.265625 0)"/>
      <use xlink:href="#DejaVuSans-4f" transform="translate(254.046875 0)"/>
      <use xlink:href="#DejaVuSans-52" transform="translate(281.828125 0)"/>
      <use xlink:href="#DejaVuSans-5a" transform="translate(343.015625 0)"/>
      <use xlink:href="#DejaVuSans-48" transform="translate(424.796875 0)"/>
      <use xlink:href="#DejaVuSans-55" transform="translate(486.328125 0)"/>
      <use xlink:href="#DejaVuSans-3" transform="translate(527.4375 0)"/>
      <use xlink:href="#DejaVuSans-35" transform="translate(559.21875 0)"/>
      <use xlink:href="#DejaVuSans-35" transform="translate(628.703125 0)"/>
     </g>
    </g>
    <g id="line2d_27">
     <path d="M 251.096298 291.876239 
L 259.096298 291.876239 
L 267.096298 291.876239 
" style="fill: none; stroke-dasharray: 5.55,2.4; stroke-dashoffset: 0; stroke: #222222; stroke-width: 1.5"/>
    </g>
    <g id="text_15">
     <!-- All RR1 -->
     <g transform="translate(273.496298 294.676239) scale(0.08 -0.08)">
      <defs>
       <path id="DejaVuSans-24" d="M 2188 4044 
L 1331 1722 
L 3047 1722 
L 2188 4044 
z
M 1831 4666 
L 2547 4666 
L 4325 0 
L 3669 0 
L 3244 1197 
L 1141 1197 
L 716 0 
L 50 0 
L 1831 4666 
z
" transform="scale(0.015625)"/>
      </defs>
      <use xlink:href="#DejaVuSans-24"/>
      <use xlink:href="#DejaVuSans-4f" transform="translate(68.40625 0)"/>
      <use xlink:href="#DejaVuSans-4f" transform="translate(96.1875 0)"/>
      <use xlink:href="#DejaVuSans-3" transform="translate(123.96875 0)"/>
      <use xlink:href="#DejaVuSans-35" transform="translate(155.75 0)"/>
      <use xlink:href="#DejaVuSans-35" transform="translate(225.234375 0)"/>
      <use xlink:href="#DejaVuSans-14" transform="translate(294.71875 0)"/>
     </g>
    </g>
    <g id="line2d_28">
     <path d="M 251.096298 303.876864 
L 259.096298 303.876864 
L 267.096298 303.876864 
" style="fill: none; stroke-dasharray: 1.5,2.475; stroke-dashoffset: 0; stroke: #999999; stroke-width: 1.5"/>
    </g>
    <g id="text_16">
     <!-- All lower RR -->
     <g transform="translate(273.496298 306.676864) scale(0.08 -0.08)">
      <use xlink:href="#DejaVuSans-24"/>
      <use xlink:href="#DejaVuSans-4f" transform="translate(68.40625 0)"/>
      <use xlink:href="#DejaVuSans-4f" transform="translate(96.1875 0)"/>
      <use xlink:href="#DejaVuSans-3" transform="translate(123.96875 0)"/>
      <use xlink:href="#DejaVuSans-4f" transform="translate(155.75 0)"/>
      <use xlink:href="#DejaVuSans-52" transform="translate(183.53125 0)"/>
      <use xlink:href="#DejaVuSans-5a" transform="translate(244.71875 0)"/>
      <use xlink:href="#DejaVuSans-48" transform="translate(326.5 0)"/>
      <use xlink:href="#DejaVuSans-55" transform="translate(388.03125 0)"/>
      <use xlink:href="#DejaVuSans-3" transform="translate(429.140625 0)"/>
      <use xlink:href="#DejaVuSans-35" transform="translate(460.921875 0)"/>
      <use xlink:href="#DejaVuSans-35" transform="translate(530.40625 0)"/>
     </g>
    </g>
   </g>
  </g>
  <g id="axes_2">
   <g id="patch_6">
    <path d="M 346.291298 315.798739 
L 636.875409 315.798739 
L 636.875409 57.12423 
L 346.291298 57.12423 
z
" style="fill: #ffffff"/>
   </g>
   <g id="matplotlib.axis_3">
    <g id="xtick_6">
     <g id="line2d_29">
      <path d="M 359.499667 315.798739 
L 359.499667 57.12423 
" clip-path="url(#pc61d7ec107)" style="fill: none; stroke: #b0b0b0; stroke-opacity: 0.2; stroke-width: 0.8; stroke-linecap: square"/>
     </g>
     <g id="line2d_30">
      <g>
       <use xlink:href="#m1072594b9a" x="359.499667" y="315.798739" style="stroke: #000000; stroke-width: 0.8"/>
      </g>
     </g>
     <g id="text_17">
      <!-- 1.5 -->
      <g transform="translate(351.548105 330.396395) scale(0.1 -0.1)">
       <use xlink:href="#DejaVuSans-14"/>
       <use xlink:href="#DejaVuSans-11" transform="translate(63.625 0)"/>
       <use xlink:href="#DejaVuSans-18" transform="translate(95.40625 0)"/>
      </g>
     </g>
    </g>
    <g id="xtick_7">
     <g id="line2d_31">
      <path d="M 425.54151 315.798739 
L 425.54151 57.12423 
" clip-path="url(#pc61d7ec107)" style="fill: none; stroke: #b0b0b0; stroke-opacity: 0.2; stroke-width: 0.8; stroke-linecap: square"/>
     </g>
     <g id="line2d_32">
      <g>
       <use xlink:href="#m1072594b9a" x="425.54151" y="315.798739" style="stroke: #000000; stroke-width: 0.8"/>
      </g>
     </g>
     <g id="text_18">
      <!-- 2.0 -->
      <g transform="translate(417.589948 330.396395) scale(0.1 -0.1)">
       <use xlink:href="#DejaVuSans-15"/>
       <use xlink:href="#DejaVuSans-11" transform="translate(63.625 0)"/>
       <use xlink:href="#DejaVuSans-13" transform="translate(95.40625 0)"/>
      </g>
     </g>
    </g>
    <g id="xtick_8">
     <g id="line2d_33">
      <path d="M 491.583354 315.798739 
L 491.583354 57.12423 
" clip-path="url(#pc61d7ec107)" style="fill: none; stroke: #b0b0b0; stroke-opacity: 0.2; stroke-width: 0.8; stroke-linecap: square"/>
     </g>
     <g id="line2d_34">
      <g>
       <use xlink:href="#m1072594b9a" x="491.583354" y="315.798739" style="stroke: #000000; stroke-width: 0.8"/>
      </g>
     </g>
     <g id="text_19">
      <!-- 2.5 -->
      <g transform="translate(483.631791 330.396395) scale(0.1 -0.1)">
       <use xlink:href="#DejaVuSans-15"/>
       <use xlink:href="#DejaVuSans-11" transform="translate(63.625 0)"/>
       <use xlink:href="#DejaVuSans-18" transform="translate(95.40625 0)"/>
      </g>
     </g>
    </g>
    <g id="xtick_9">
     <g id="line2d_35">
      <path d="M 557.625197 315.798739 
L 557.625197 57.12423 
" clip-path="url(#pc61d7ec107)" style="fill: none; stroke: #b0b0b0; stroke-opacity: 0.2; stroke-width: 0.8; stroke-linecap: square"/>
     </g>
     <g id="line2d_36">
      <g>
       <use xlink:href="#m1072594b9a" x="557.625197" y="315.798739" style="stroke: #000000; stroke-width: 0.8"/>
      </g>
     </g>
     <g id="text_20">
      <!-- 3.0 -->
      <g transform="translate(549.673635 330.396395) scale(0.1 -0.1)">
       <use xlink:href="#DejaVuSans-16"/>
       <use xlink:href="#DejaVuSans-11" transform="translate(63.625 0)"/>
       <use xlink:href="#DejaVuSans-13" transform="translate(95.40625 0)"/>
      </g>
     </g>
    </g>
    <g id="xtick_10">
     <g id="line2d_37">
      <path d="M 623.66704 315.798739 
L 623.66704 57.12423 
" clip-path="url(#pc61d7ec107)" style="fill: none; stroke: #b0b0b0; stroke-opacity: 0.2; stroke-width: 0.8; stroke-linecap: square"/>
     </g>
     <g id="line2d_38">
      <g>
       <use xlink:href="#m1072594b9a" x="623.66704" y="315.798739" style="stroke: #000000; stroke-width: 0.8"/>
      </g>
     </g>
     <g id="text_21">
      <!-- 3.5 -->
      <g transform="translate(615.715478 330.396395) scale(0.1 -0.1)">
       <use xlink:href="#DejaVuSans-16"/>
       <use xlink:href="#DejaVuSans-11" transform="translate(63.625 0)"/>
       <use xlink:href="#DejaVuSans-18" transform="translate(95.40625 0)"/>
      </g>
     </g>
    </g>
    <g id="text_22">
     <!-- Higher RR -->
     <g transform="translate(466.421635 344.397176) scale(0.1 -0.1)">
      <use xlink:href="#DejaVuSans-2b"/>
      <use xlink:href="#DejaVuSans-4c" transform="translate(75.203125 0)"/>
      <use xlink:href="#DejaVuSans-4a" transform="translate(102.984375 0)"/>
      <use xlink:href="#DejaVuSans-4b" transform="translate(166.46875 0)"/>
      <use xlink:href="#DejaVuSans-48" transform="translate(229.84375 0)"/>
      <use xlink:href="#DejaVuSans-55" transform="translate(291.375 0)"/>
      <use xlink:href="#DejaVuSans-3" transform="translate(332.484375 0)"/>
      <use xlink:href="#DejaVuSans-35" transform="translate(364.265625 0)"/>
      <use xlink:href="#DejaVuSans-35" transform="translate(433.75 0)"/>
     </g>
    </g>
   </g>
   <g id="matplotlib.axis_4">
    <g id="ytick_5">
     <g id="line2d_39">
      <path d="M 346.291298 268.76701 
L 636.875409 268.76701 
" clip-path="url(#pc61d7ec107)" style="fill: none; stroke: #b0b0b0; stroke-opacity: 0.2; stroke-width: 0.8; stroke-linecap: square"/>
     </g>
     <g id="line2d_40">
      <g>
       <use xlink:href="#me5781d6c81" x="346.291298" y="268.76701" style="stroke: #000000; stroke-width: 0.8"/>
      </g>
     </g>
    </g>
    <g id="ytick_6">
     <g id="line2d_41">
      <path d="M 346.291298 214.680522 
L 636.875409 214.680522 
" clip-path="url(#pc61d7ec107)" style="fill: none; stroke: #b0b0b0; stroke-opacity: 0.2; stroke-width: 0.8; stroke-linecap: square"/>
     </g>
     <g id="line2d_42">
      <g>
       <use xlink:href="#me5781d6c81" x="346.291298" y="214.680522" style="stroke: #000000; stroke-width: 0.8"/>
      </g>
     </g>
    </g>
    <g id="ytick_7">
     <g id="line2d_43">
      <path d="M 346.291298 160.594033 
L 636.875409 160.594033 
" clip-path="url(#pc61d7ec107)" style="fill: none; stroke: #b0b0b0; stroke-opacity: 0.2; stroke-width: 0.8; stroke-linecap: square"/>
     </g>
     <g id="line2d_44">
      <g>
       <use xlink:href="#me5781d6c81" x="346.291298" y="160.594033" style="stroke: #000000; stroke-width: 0.8"/>
      </g>
     </g>
    </g>
    <g id="ytick_8">
     <g id="line2d_45">
      <path d="M 346.291298 106.507545 
L 636.875409 106.507545 
" clip-path="url(#pc61d7ec107)" style="fill: none; stroke: #b0b0b0; stroke-opacity: 0.2; stroke-width: 0.8; stroke-linecap: square"/>
     </g>
     <g id="line2d_46">
      <g>
       <use xlink:href="#me5781d6c81" x="346.291298" y="106.507545" style="stroke: #000000; stroke-width: 0.8"/>
      </g>
     </g>
    </g>
   </g>
   <g id="line2d_47">
    <path d="M 359.499667 221.735281 
L 392.520589 280.524942 
L 425.54151 257.009078 
L 458.562432 257.009078 
L 491.583354 209.977349 
L 524.604275 115.913891 
L 557.625197 186.461484 
L 590.646119 186.461484 
L 623.66704 139.429756 
" clip-path="url(#pc61d7ec107)" style="fill: none; stroke: #7353a6; stroke-width: 1.5; stroke-linecap: square"/>
    <g clip-path="url(#pc61d7ec107)">
     <use xlink:href="#m5d55e01d61" x="359.499667" y="221.735281" style="fill: #7353a6; stroke: #7353a6"/>
     <use xlink:href="#m5d55e01d61" x="392.520589" y="280.524942" style="fill: #7353a6; stroke: #7353a6"/>
     <use xlink:href="#m5d55e01d61" x="425.54151" y="257.009078" style="fill: #7353a6; stroke: #7353a6"/>
     <use xlink:href="#m5d55e01d61" x="458.562432" y="257.009078" style="fill: #7353a6; stroke: #7353a6"/>
     <use xlink:href="#m5d55e01d61" x="491.583354" y="209.977349" style="fill: #7353a6; stroke: #7353a6"/>
     <use xlink:href="#m5d55e01d61" x="524.604275" y="115.913891" style="fill: #7353a6; stroke: #7353a6"/>
     <use xlink:href="#m5d55e01d61" x="557.625197" y="186.461484" style="fill: #7353a6; stroke: #7353a6"/>
     <use xlink:href="#m5d55e01d61" x="590.646119" y="186.461484" style="fill: #7353a6; stroke: #7353a6"/>
     <use xlink:href="#m5d55e01d61" x="623.66704" y="139.429756" style="fill: #7353a6; stroke: #7353a6"/>
    </g>
   </g>
   <g id="line2d_48">
    <path d="M 359.499667 186.461484 
L 392.520589 209.977349 
L 425.54151 209.977349 
L 458.562432 209.977349 
L 491.583354 162.94562 
L 524.604275 115.913891 
L 557.625197 162.94562 
L 590.646119 162.94562 
L 623.66704 115.913891 
" clip-path="url(#pc61d7ec107)" style="fill: none; stroke: #087e8b; stroke-width: 1.5; stroke-linecap: square"/>
    <g clip-path="url(#pc61d7ec107)">
     <use xlink:href="#mdcfcfa1183" x="359.499667" y="186.461484" style="fill: #087e8b; stroke: #087e8b"/>
     <use xlink:href="#mdcfcfa1183" x="392.520589" y="209.977349" style="fill: #087e8b; stroke: #087e8b"/>
     <use xlink:href="#mdcfcfa1183" x="425.54151" y="209.977349" style="fill: #087e8b; stroke: #087e8b"/>
     <use xlink:href="#mdcfcfa1183" x="458.562432" y="209.977349" style="fill: #087e8b; stroke: #087e8b"/>
     <use xlink:href="#mdcfcfa1183" x="491.583354" y="162.94562" style="fill: #087e8b; stroke: #087e8b"/>
     <use xlink:href="#mdcfcfa1183" x="524.604275" y="115.913891" style="fill: #087e8b; stroke: #087e8b"/>
     <use xlink:href="#mdcfcfa1183" x="557.625197" y="162.94562" style="fill: #087e8b; stroke: #087e8b"/>
     <use xlink:href="#mdcfcfa1183" x="590.646119" y="162.94562" style="fill: #087e8b; stroke: #087e8b"/>
     <use xlink:href="#mdcfcfa1183" x="623.66704" y="115.913891" style="fill: #087e8b; stroke: #087e8b"/>
    </g>
   </g>
   <g id="line2d_49">
    <path d="M 359.499667 127.671823 
L 392.520589 139.429756 
L 425.54151 139.429756 
L 458.562432 139.429756 
L 491.583354 115.913891 
L 524.604275 92.398027 
L 557.625197 115.913891 
L 590.646119 115.913891 
L 623.66704 92.398027 
" clip-path="url(#pc61d7ec107)" style="fill: none; stroke: #c05621; stroke-width: 1.5; stroke-linecap: square"/>
    <g clip-path="url(#pc61d7ec107)">
     <use xlink:href="#m82ae7aecbc" x="359.499667" y="127.671823" style="fill: #c05621; stroke: #c05621"/>
     <use xlink:href="#m82ae7aecbc" x="392.520589" y="139.429756" style="fill: #c05621; stroke: #c05621"/>
     <use xlink:href="#m82ae7aecbc" x="425.54151" y="139.429756" style="fill: #c05621; stroke: #c05621"/>
     <use xlink:href="#m82ae7aecbc" x="458.562432" y="139.429756" style="fill: #c05621; stroke: #c05621"/>
     <use xlink:href="#m82ae7aecbc" x="491.583354" y="115.913891" style="fill: #c05621; stroke: #c05621"/>
     <use xlink:href="#m82ae7aecbc" x="524.604275" y="92.398027" style="fill: #c05621; stroke: #c05621"/>
     <use xlink:href="#m82ae7aecbc" x="557.625197" y="115.913891" style="fill: #c05621; stroke: #c05621"/>
     <use xlink:href="#m82ae7aecbc" x="590.646119" y="115.913891" style="fill: #c05621; stroke: #c05621"/>
     <use xlink:href="#m82ae7aecbc" x="623.66704" y="92.398027" style="fill: #c05621; stroke: #c05621"/>
    </g>
   </g>
   <g id="line2d_50">
    <path d="M 346.291298 162.94562 
L 636.875409 162.94562 
" clip-path="url(#pc61d7ec107)" style="fill: none; stroke-dasharray: 5.55,2.4; stroke-dashoffset: 0; stroke: #222222; stroke-width: 1.5"/>
   </g>
   <g id="line2d_51">
    <path d="M 346.291298 68.882162 
L 636.875409 68.882162 
" clip-path="url(#pc61d7ec107)" style="fill: none; stroke-dasharray: 1.5,2.475; stroke-dashoffset: 0; stroke: #999999; stroke-width: 1.5"/>
   </g>
   <g id="patch_7">
    <path d="M 346.291298 315.798739 
L 346.291298 57.12423 
" style="fill: none; stroke: #000000; stroke-width: 0.8; stroke-linejoin: miter; stroke-linecap: square"/>
   </g>
   <g id="patch_8">
    <path d="M 346.291298 315.798739 
L 636.875409 315.798739 
" style="fill: none; stroke: #000000; stroke-width: 0.8; stroke-linejoin: miter; stroke-linecap: square"/>
   </g>
   <g id="text_23">
    <!-- Lower RR = 0.75 -->
    <g transform="translate(441.162729 51.12423) scale(0.12 -0.12)">
     <use xlink:href="#DejaVuSans-2f"/>
     <use xlink:href="#DejaVuSans-52" transform="translate(53.96875 0)"/>
     <use xlink:href="#DejaVuSans-5a" transform="translate(115.15625 0)"/>
     <use xlink:href="#DejaVuSans-48" transform="translate(196.9375 0)"/>
     <use xlink:href="#DejaVuSans-55" transform="translate(258.46875 0)"/>
     <use xlink:href="#DejaVuSans-3" transform="translate(299.578125 0)"/>
     <use xlink:href="#DejaVuSans-35" transform="translate(331.359375 0)"/>
     <use xlink:href="#DejaVuSans-35" transform="translate(400.84375 0)"/>
     <use xlink:href="#DejaVuSans-3" transform="translate(470.328125 0)"/>
     <use xlink:href="#DejaVuSans-20" transform="translate(502.109375 0)"/>
     <use xlink:href="#DejaVuSans-3" transform="translate(585.90625 0)"/>
     <use xlink:href="#DejaVuSans-13" transform="translate(617.6875 0)"/>
     <use xlink:href="#DejaVuSans-11" transform="translate(681.3125 0)"/>
     <use xlink:href="#DejaVuSans-1a" transform="translate(713.09375 0)"/>
     <use xlink:href="#DejaVuSans-18" transform="translate(776.71875 0)"/>
    </g>
   </g>
  </g>
  <g id="axes_3">
   <g id="patch_9">
    <path d="M 646.615409 315.798739 
L 937.19952 315.798739 
L 937.19952 57.12423 
L 646.615409 57.12423 
z
" style="fill: #ffffff"/>
   </g>
   <g id="matplotlib.axis_5">
    <g id="xtick_11">
     <g id="line2d_52">
      <path d="M 659.823778 315.798739 
L 659.823778 57.12423 
" clip-path="url(#p28518c664b)" style="fill: none; stroke: #b0b0b0; stroke-opacity: 0.2; stroke-width: 0.8; stroke-linecap: square"/>
     </g>
     <g id="line2d_53">
      <g>
       <use xlink:href="#m1072594b9a" x="659.823778" y="315.798739" style="stroke: #000000; stroke-width: 0.8"/>
      </g>
     </g>
     <g id="text_24">
      <!-- 1.5 -->
      <g transform="translate(651.872215 330.396395) scale(0.1 -0.1)">
       <use xlink:href="#DejaVuSans-14"/>
       <use xlink:href="#DejaVuSans-11" transform="translate(63.625 0)"/>
       <use xlink:href="#DejaVuSans-18" transform="translate(95.40625 0)"/>
      </g>
     </g>
    </g>
    <g id="xtick_12">
     <g id="line2d_54">
      <path d="M 725.865621 315.798739 
L 725.865621 57.12423 
" clip-path="url(#p28518c664b)" style="fill: none; stroke: #b0b0b0; stroke-opacity: 0.2; stroke-width: 0.8; stroke-linecap: square"/>
     </g>
     <g id="line2d_55">
      <g>
       <use xlink:href="#m1072594b9a" x="725.865621" y="315.798739" style="stroke: #000000; stroke-width: 0.8"/>
      </g>
     </g>
     <g id="text_25">
      <!-- 2.0 -->
      <g transform="translate(717.914059 330.396395) scale(0.1 -0.1)">
       <use xlink:href="#DejaVuSans-15"/>
       <use xlink:href="#DejaVuSans-11" transform="translate(63.625 0)"/>
       <use xlink:href="#DejaVuSans-13" transform="translate(95.40625 0)"/>
      </g>
     </g>
    </g>
    <g id="xtick_13">
     <g id="line2d_56">
      <path d="M 791.907465 315.798739 
L 791.907465 57.12423 
" clip-path="url(#p28518c664b)" style="fill: none; stroke: #b0b0b0; stroke-opacity: 0.2; stroke-width: 0.8; stroke-linecap: square"/>
     </g>
     <g id="line2d_57">
      <g>
       <use xlink:href="#m1072594b9a" x="791.907465" y="315.798739" style="stroke: #000000; stroke-width: 0.8"/>
      </g>
     </g>
     <g id="text_26">
      <!-- 2.5 -->
      <g transform="translate(783.955902 330.396395) scale(0.1 -0.1)">
       <use xlink:href="#DejaVuSans-15"/>
       <use xlink:href="#DejaVuSans-11" transform="translate(63.625 0)"/>
       <use xlink:href="#DejaVuSans-18" transform="translate(95.40625 0)"/>
      </g>
     </g>
    </g>
    <g id="xtick_14">
     <g id="line2d_58">
      <path d="M 857.949308 315.798739 
L 857.949308 57.12423 
" clip-path="url(#p28518c664b)" style="fill: none; stroke: #b0b0b0; stroke-opacity: 0.2; stroke-width: 0.8; stroke-linecap: square"/>
     </g>
     <g id="line2d_59">
      <g>
       <use xlink:href="#m1072594b9a" x="857.949308" y="315.798739" style="stroke: #000000; stroke-width: 0.8"/>
      </g>
     </g>
     <g id="text_27">
      <!-- 3.0 -->
      <g transform="translate(849.997745 330.396395) scale(0.1 -0.1)">
       <use xlink:href="#DejaVuSans-16"/>
       <use xlink:href="#DejaVuSans-11" transform="translate(63.625 0)"/>
       <use xlink:href="#DejaVuSans-13" transform="translate(95.40625 0)"/>
      </g>
     </g>
    </g>
    <g id="xtick_15">
     <g id="line2d_60">
      <path d="M 923.991151 315.798739 
L 923.991151 57.12423 
" clip-path="url(#p28518c664b)" style="fill: none; stroke: #b0b0b0; stroke-opacity: 0.2; stroke-width: 0.8; stroke-linecap: square"/>
     </g>
     <g id="line2d_61">
      <g>
       <use xlink:href="#m1072594b9a" x="923.991151" y="315.798739" style="stroke: #000000; stroke-width: 0.8"/>
      </g>
     </g>
     <g id="text_28">
      <!-- 3.5 -->
      <g transform="translate(916.039589 330.396395) scale(0.1 -0.1)">
       <use xlink:href="#DejaVuSans-16"/>
       <use xlink:href="#DejaVuSans-11" transform="translate(63.625 0)"/>
       <use xlink:href="#DejaVuSans-18" transform="translate(95.40625 0)"/>
      </g>
     </g>
    </g>
    <g id="text_29">
     <!-- Higher RR -->
     <g transform="translate(766.745746 344.397176) scale(0.1 -0.1)">
      <use xlink:href="#DejaVuSans-2b"/>
      <use xlink:href="#DejaVuSans-4c" transform="translate(75.203125 0)"/>
      <use xlink:href="#DejaVuSans-4a" transform="translate(102.984375 0)"/>
      <use xlink:href="#DejaVuSans-4b" transform="translate(166.46875 0)"/>
      <use xlink:href="#DejaVuSans-48" transform="translate(229.84375 0)"/>
      <use xlink:href="#DejaVuSans-55" transform="translate(291.375 0)"/>
      <use xlink:href="#DejaVuSans-3" transform="translate(332.484375 0)"/>
      <use xlink:href="#DejaVuSans-35" transform="translate(364.265625 0)"/>
      <use xlink:href="#DejaVuSans-35" transform="translate(433.75 0)"/>
     </g>
    </g>
   </g>
   <g id="matplotlib.axis_6">
    <g id="ytick_9">
     <g id="line2d_62">
      <path d="M 646.615409 268.76701 
L 937.19952 268.76701 
" clip-path="url(#p28518c664b)" style="fill: none; stroke: #b0b0b0; stroke-opacity: 0.2; stroke-width: 0.8; stroke-linecap: square"/>
     </g>
     <g id="line2d_63">
      <g>
       <use xlink:href="#me5781d6c81" x="646.615409" y="268.76701" style="stroke: #000000; stroke-width: 0.8"/>
      </g>
     </g>
    </g>
    <g id="ytick_10">
     <g id="line2d_64">
      <path d="M 646.615409 214.680522 
L 937.19952 214.680522 
" clip-path="url(#p28518c664b)" style="fill: none; stroke: #b0b0b0; stroke-opacity: 0.2; stroke-width: 0.8; stroke-linecap: square"/>
     </g>
     <g id="line2d_65">
      <g>
       <use xlink:href="#me5781d6c81" x="646.615409" y="214.680522" style="stroke: #000000; stroke-width: 0.8"/>
      </g>
     </g>
    </g>
    <g id="ytick_11">
     <g id="line2d_66">
      <path d="M 646.615409 160.594033 
L 937.19952 160.594033 
" clip-path="url(#p28518c664b)" style="fill: none; stroke: #b0b0b0; stroke-opacity: 0.2; stroke-width: 0.8; stroke-linecap: square"/>
     </g>
     <g id="line2d_67">
      <g>
       <use xlink:href="#me5781d6c81" x="646.615409" y="160.594033" style="stroke: #000000; stroke-width: 0.8"/>
      </g>
     </g>
    </g>
    <g id="ytick_12">
     <g id="line2d_68">
      <path d="M 646.615409 106.507545 
L 937.19952 106.507545 
" clip-path="url(#p28518c664b)" style="fill: none; stroke: #b0b0b0; stroke-opacity: 0.2; stroke-width: 0.8; stroke-linecap: square"/>
     </g>
     <g id="line2d_69">
      <g>
       <use xlink:href="#me5781d6c81" x="646.615409" y="106.507545" style="stroke: #000000; stroke-width: 0.8"/>
      </g>
     </g>
    </g>
   </g>
   <g id="line2d_70">
    <path d="M 659.823778 233.493213 
L 692.8447 304.040807 
L 725.865621 268.76701 
L 758.886543 268.76701 
L 791.907465 233.493213 
L 824.928386 139.429756 
L 857.949308 209.977349 
L 890.97023 209.977349 
L 923.991151 162.94562 
" clip-path="url(#p28518c664b)" style="fill: none; stroke: #7353a6; stroke-width: 1.5; stroke-linecap: square"/>
    <g clip-path="url(#p28518c664b)">
     <use xlink:href="#m5d55e01d61" x="659.823778" y="233.493213" style="fill: #7353a6; stroke: #7353a6"/>
     <use xlink:href="#m5d55e01d61" x="692.8447" y="304.040807" style="fill: #7353a6; stroke: #7353a6"/>
     <use xlink:href="#m5d55e01d61" x="725.865621" y="268.76701" style="fill: #7353a6; stroke: #7353a6"/>
     <use xlink:href="#m5d55e01d61" x="758.886543" y="268.76701" style="fill: #7353a6; stroke: #7353a6"/>
     <use xlink:href="#m5d55e01d61" x="791.907465" y="233.493213" style="fill: #7353a6; stroke: #7353a6"/>
     <use xlink:href="#m5d55e01d61" x="824.928386" y="139.429756" style="fill: #7353a6; stroke: #7353a6"/>
     <use xlink:href="#m5d55e01d61" x="857.949308" y="209.977349" style="fill: #7353a6; stroke: #7353a6"/>
     <use xlink:href="#m5d55e01d61" x="890.97023" y="209.977349" style="fill: #7353a6; stroke: #7353a6"/>
     <use xlink:href="#m5d55e01d61" x="923.991151" y="162.94562" style="fill: #7353a6; stroke: #7353a6"/>
    </g>
   </g>
   <g id="line2d_71">
    <path d="M 659.823778 209.977349 
L 692.8447 257.009078 
L 725.865621 233.493213 
L 758.886543 233.493213 
L 791.907465 209.977349 
L 824.928386 162.94562 
L 857.949308 209.977349 
L 890.97023 209.977349 
L 923.991151 162.94562 
" clip-path="url(#p28518c664b)" style="fill: none; stroke: #087e8b; stroke-width: 1.5; stroke-linecap: square"/>
    <g clip-path="url(#p28518c664b)">
     <use xlink:href="#mdcfcfa1183" x="659.823778" y="209.977349" style="fill: #087e8b; stroke: #087e8b"/>
     <use xlink:href="#mdcfcfa1183" x="692.8447" y="257.009078" style="fill: #087e8b; stroke: #087e8b"/>
     <use xlink:href="#mdcfcfa1183" x="725.865621" y="233.493213" style="fill: #087e8b; stroke: #087e8b"/>
     <use xlink:href="#mdcfcfa1183" x="758.886543" y="233.493213" style="fill: #087e8b; stroke: #087e8b"/>
     <use xlink:href="#mdcfcfa1183" x="791.907465" y="209.977349" style="fill: #087e8b; stroke: #087e8b"/>
     <use xlink:href="#mdcfcfa1183" x="824.928386" y="162.94562" style="fill: #087e8b; stroke: #087e8b"/>
     <use xlink:href="#mdcfcfa1183" x="857.949308" y="209.977349" style="fill: #087e8b; stroke: #087e8b"/>
     <use xlink:href="#mdcfcfa1183" x="890.97023" y="209.977349" style="fill: #087e8b; stroke: #087e8b"/>
     <use xlink:href="#mdcfcfa1183" x="923.991151" y="162.94562" style="fill: #087e8b; stroke: #087e8b"/>
    </g>
   </g>
   <g id="line2d_72">
    <path d="M 659.823778 186.461484 
L 692.8447 209.977349 
L 725.865621 198.219417 
L 758.886543 198.219417 
L 791.907465 186.461484 
L 824.928386 162.94562 
L 857.949308 186.461484 
L 890.97023 186.461484 
L 923.991151 162.94562 
" clip-path="url(#p28518c664b)" style="fill: none; stroke: #c05621; stroke-width: 1.5; stroke-linecap: square"/>
    <g clip-path="url(#p28518c664b)">
     <use xlink:href="#m82ae7aecbc" x="659.823778" y="186.461484" style="fill: #c05621; stroke: #c05621"/>
     <use xlink:href="#m82ae7aecbc" x="692.8447" y="209.977349" style="fill: #c05621; stroke: #c05621"/>
     <use xlink:href="#m82ae7aecbc" x="725.865621" y="198.219417" style="fill: #c05621; stroke: #c05621"/>
     <use xlink:href="#m82ae7aecbc" x="758.886543" y="198.219417" style="fill: #c05621; stroke: #c05621"/>
     <use xlink:href="#m82ae7aecbc" x="791.907465" y="186.461484" style="fill: #c05621; stroke: #c05621"/>
     <use xlink:href="#m82ae7aecbc" x="824.928386" y="162.94562" style="fill: #c05621; stroke: #c05621"/>
     <use xlink:href="#m82ae7aecbc" x="857.949308" y="186.461484" style="fill: #c05621; stroke: #c05621"/>
     <use xlink:href="#m82ae7aecbc" x="890.97023" y="186.461484" style="fill: #c05621; stroke: #c05621"/>
     <use xlink:href="#m82ae7aecbc" x="923.991151" y="162.94562" style="fill: #c05621; stroke: #c05621"/>
    </g>
   </g>
   <g id="line2d_73">
    <path d="M 646.615409 162.94562 
L 937.19952 162.94562 
" clip-path="url(#p28518c664b)" style="fill: none; stroke-dasharray: 5.55,2.4; stroke-dashoffset: 0; stroke: #222222; stroke-width: 1.5"/>
   </g>
   <g id="line2d_74">
    <path d="M 646.615409 162.94562 
L 937.19952 162.94562 
" clip-path="url(#p28518c664b)" style="fill: none; stroke-dasharray: 1.5,2.475; stroke-dashoffset: 0; stroke: #999999; stroke-width: 1.5"/>
   </g>
   <g id="patch_10">
    <path d="M 646.615409 315.798739 
L 646.615409 57.12423 
" style="fill: none; stroke: #000000; stroke-width: 0.8; stroke-linejoin: miter; stroke-linecap: square"/>
   </g>
   <g id="patch_11">
    <path d="M 646.615409 315.798739 
L 937.19952 315.798739 
" style="fill: none; stroke: #000000; stroke-width: 0.8; stroke-linejoin: miter; stroke-linecap: square"/>
   </g>
   <g id="text_30">
    <!-- Lower RR = 1.00 -->
    <g transform="translate(741.48684 51.12423) scale(0.12 -0.12)">
     <use xlink:href="#DejaVuSans-2f"/>
     <use xlink:href="#DejaVuSans-52" transform="translate(53.96875 0)"/>
     <use xlink:href="#DejaVuSans-5a" transform="translate(115.15625 0)"/>
     <use xlink:href="#DejaVuSans-48" transform="translate(196.9375 0)"/>
     <use xlink:href="#DejaVuSans-55" transform="translate(258.46875 0)"/>
     <use xlink:href="#DejaVuSans-3" transform="translate(299.578125 0)"/>
     <use xlink:href="#DejaVuSans-35" transform="translate(331.359375 0)"/>
     <use xlink:href="#DejaVuSans-35" transform="translate(400.84375 0)"/>
     <use xlink:href="#DejaVuSans-3" transform="translate(470.328125 0)"/>
     <use xlink:href="#DejaVuSans-20" transform="translate(502.109375 0)"/>
     <use xlink:href="#DejaVuSans-3" transform="translate(585.90625 0)"/>
     <use xlink:href="#DejaVuSans-14" transform="translate(617.6875 0)"/>
     <use xlink:href="#DejaVuSans-11" transform="translate(681.3125 0)"/>
     <use xlink:href="#DejaVuSans-13" transform="translate(713.09375 0)"/>
     <use xlink:href="#DejaVuSans-13" transform="translate(776.71875 0)"/>
    </g>
   </g>
  </g>
  <g id="text_31">
   <!-- Mean largest possible 5-day first-breach fraction ($1,500 floor) -->
   <g transform="translate(283.420073 17.519297) scale(0.12 -0.12)">
    <defs>
     <path id="DejaVuSans-30" d="M 628 4666 
L 1569 4666 
L 2759 1491 
L 3956 4666 
L 4897 4666 
L 4897 0 
L 4281 0 
L 4281 4097 
L 3078 897 
L 2444 897 
L 1241 4097 
L 1241 0 
L 628 0 
L 628 4666 
z
" transform="scale(0.015625)"/>
     <path id="DejaVuSans-44" d="M 2194 1759 
Q 1497 1759 1228 1600 
Q 959 1441 959 1056 
Q 959 750 1161 570 
Q 1363 391 1709 391 
Q 2188 391 2477 730 
Q 2766 1069 2766 1631 
L 2766 1759 
L 2194 1759 
z
M 3341 1997 
L 3341 0 
L 2766 0 
L 2766 531 
Q 2569 213 2275 61 
Q 1981 -91 1556 -91 
Q 1019 -91 701 211 
Q 384 513 384 1019 
Q 384 1609 779 1909 
Q 1175 2209 1959 2209 
L 2766 2209 
L 2766 2266 
Q 2766 2663 2505 2880 
Q 2244 3097 1772 3097 
Q 1472 3097 1187 3025 
Q 903 2953 641 2809 
L 641 3341 
Q 956 3463 1253 3523 
Q 1550 3584 1831 3584 
Q 2591 3584 2966 3190 
Q 3341 2797 3341 1997 
z
" transform="scale(0.015625)"/>
     <path id="DejaVuSans-51" d="M 3513 2113 
L 3513 0 
L 2938 0 
L 2938 2094 
Q 2938 2591 2744 2837 
Q 2550 3084 2163 3084 
Q 1697 3084 1428 2787 
Q 1159 2491 1159 1978 
L 1159 0 
L 581 0 
L 581 3500 
L 1159 3500 
L 1159 2956 
Q 1366 3272 1645 3428 
Q 1925 3584 2291 3584 
Q 2894 3584 3203 3211 
Q 3513 2838 3513 2113 
z
" transform="scale(0.015625)"/>
     <path id="DejaVuSans-56" d="M 2834 3397 
L 2834 2853 
Q 2591 2978 2328 3040 
Q 2066 3103 1784 3103 
Q 1356 3103 1142 2972 
Q 928 2841 928 2578 
Q 928 2378 1081 2264 
Q 1234 2150 1697 2047 
L 1894 2003 
Q 2506 1872 2764 1633 
Q 3022 1394 3022 966 
Q 3022 478 2636 193 
Q 2250 -91 1575 -91 
Q 1294 -91 989 -36 
Q 684 19 347 128 
L 347 722 
Q 666 556 975 473 
Q 1284 391 1588 391 
Q 1994 391 2212 530 
Q 2431 669 2431 922 
Q 2431 1156 2273 1281 
Q 2116 1406 1581 1522 
L 1381 1569 
Q 847 1681 609 1914 
Q 372 2147 372 2553 
Q 372 3047 722 3315 
Q 1072 3584 1716 3584 
Q 2034 3584 2315 3537 
Q 2597 3491 2834 3397 
z
" transform="scale(0.015625)"/>
     <path id="DejaVuSans-57" d="M 1172 4494 
L 1172 3500 
L 2356 3500 
L 2356 3053 
L 1172 3053 
L 1172 1153 
Q 1172 725 1289 603 
Q 1406 481 1766 481 
L 2356 481 
L 2356 0 
L 1766 0 
Q 1100 0 847 248 
Q 594 497 594 1153 
L 594 3053 
L 172 3053 
L 172 3500 
L 594 3500 
L 594 4494 
L 1172 4494 
z
" transform="scale(0.015625)"/>
     <path id="DejaVuSans-53" d="M 1159 525 
L 1159 -1331 
L 581 -1331 
L 581 3500 
L 1159 3500 
L 1159 2969 
Q 1341 3281 1617 3432 
Q 1894 3584 2278 3584 
Q 2916 3584 3314 3078 
Q 3713 2572 3713 1747 
Q 3713 922 3314 415 
Q 2916 -91 2278 -91 
Q 1894 -91 1617 61 
Q 1341 213 1159 525 
z
M 3116 1747 
Q 3116 2381 2855 2742 
Q 2594 3103 2138 3103 
Q 1681 3103 1420 2742 
Q 1159 2381 1159 1747 
Q 1159 1113 1420 752 
Q 1681 391 2138 391 
Q 2594 391 2855 752 
Q 3116 1113 3116 1747 
z
" transform="scale(0.015625)"/>
     <path id="DejaVuSans-45" d="M 3116 1747 
Q 3116 2381 2855 2742 
Q 2594 3103 2138 3103 
Q 1681 3103 1420 2742 
Q 1159 2381 1159 1747 
Q 1159 1113 1420 752 
Q 1681 391 2138 391 
Q 2594 391 2855 752 
Q 3116 1113 3116 1747 
z
M 1159 2969 
Q 1341 3281 1617 3432 
Q 1894 3584 2278 3584 
Q 2916 3584 3314 3078 
Q 3713 2572 3713 1747 
Q 3713 922 3314 415 
Q 2916 -91 2278 -91 
Q 1894 -91 1617 61 
Q 1341 213 1159 525 
L 1159 0 
L 581 0 
L 581 4863 
L 1159 4863 
L 1159 2969 
z
" transform="scale(0.015625)"/>
     <path id="DejaVuSans-10" d="M 313 2009 
L 1997 2009 
L 1997 1497 
L 313 1497 
L 313 2009 
z
" transform="scale(0.015625)"/>
     <path id="DejaVuSans-47" d="M 2906 2969 
L 2906 4863 
L 3481 4863 
L 3481 0 
L 2906 0 
L 2906 525 
Q 2725 213 2448 61 
Q 2172 -91 1784 -91 
Q 1150 -91 751 415 
Q 353 922 353 1747 
Q 353 2572 751 3078 
Q 1150 3584 1784 3584 
Q 2172 3584 2448 3432 
Q 2725 3281 2906 2969 
z
M 947 1747 
Q 947 1113 1208 752 
Q 1469 391 1925 391 
Q 2381 391 2643 752 
Q 2906 1113 2906 1747 
Q 2906 2381 2643 2742 
Q 2381 3103 1925 3103 
Q 1469 3103 1208 2742 
Q 947 2381 947 1747 
z
" transform="scale(0.015625)"/>
     <path id="DejaVuSans-5c" d="M 2059 -325 
Q 1816 -950 1584 -1140 
Q 1353 -1331 966 -1331 
L 506 -1331 
L 506 -850 
L 844 -850 
Q 1081 -850 1212 -737 
Q 1344 -625 1503 -206 
L 1606 56 
L 191 3500 
L 800 3500 
L 1894 763 
L 2988 3500 
L 3597 3500 
L 2059 -325 
z
" transform="scale(0.015625)"/>
     <path id="DejaVuSans-13af" d="M 3431 3500 
L 3431 0 
L 2853 0 
L 2853 3053 
L 1275 3053 
L 1275 0 
L 697 0 
L 697 3053 
L 147 3053 
L 147 3500 
L 697 3500 
L 697 3744 
Q 697 4316 967 4589 
Q 1238 4863 1797 4863 
L 2375 4863 
L 2375 4384 
L 1825 4384 
Q 1516 4384 1395 4259 
Q 1275 4134 1275 3809 
L 1275 3500 
L 3431 3500 
z
M 2853 4856 
L 3431 4856 
L 3431 4128 
L 2853 4128 
L 2853 4856 
z
" transform="scale(0.015625)"/>
     <path id="DejaVuSans-46" d="M 3122 3366 
L 3122 2828 
Q 2878 2963 2633 3030 
Q 2388 3097 2138 3097 
Q 1578 3097 1268 2742 
Q 959 2388 959 1747 
Q 959 1106 1268 751 
Q 1578 397 2138 397 
Q 2388 397 2633 464 
Q 2878 531 3122 666 
L 3122 134 
Q 2881 22 2623 -34 
Q 2366 -91 2075 -91 
Q 1284 -91 818 406 
Q 353 903 353 1747 
Q 353 2603 823 3093 
Q 1294 3584 2113 3584 
Q 2378 3584 2631 3529 
Q 2884 3475 3122 3366 
z
" transform="scale(0.015625)"/>
     <path id="DejaVuSans-49" d="M 2375 4863 
L 2375 4384 
L 1825 4384 
Q 1516 4384 1395 4259 
Q 1275 4134 1275 3809 
L 1275 3500 
L 2222 3500 
L 2222 3053 
L 1275 3053 
L 1275 0 
L 697 0 
L 697 3053 
L 147 3053 
L 147 3500 
L 697 3500 
L 697 3744 
Q 697 4328 969 4595 
Q 1241 4863 1831 4863 
L 2375 4863 
z
" transform="scale(0.015625)"/>
     <path id="DejaVuSans-b" d="M 1984 4856 
Q 1566 4138 1362 3434 
Q 1159 2731 1159 2009 
Q 1159 1288 1364 580 
Q 1569 -128 1984 -844 
L 1484 -844 
Q 1016 -109 783 600 
Q 550 1309 550 2009 
Q 550 2706 781 3412 
Q 1013 4119 1484 4856 
L 1984 4856 
z
" transform="scale(0.015625)"/>
     <path id="DejaVuSans-7" d="M 2163 -941 
L 1850 -941 
L 1847 0 
Q 1519 6 1191 76 
Q 863 147 531 288 
L 531 850 
Q 850 650 1176 548 
Q 1503 447 1850 444 
L 1850 1869 
Q 1159 1981 845 2250 
Q 531 2519 531 2988 
Q 531 3497 872 3790 
Q 1213 4084 1850 4128 
L 1850 4863 
L 2163 4863 
L 2163 4138 
Q 2453 4125 2725 4076 
Q 2997 4028 3256 3944 
L 3256 3397 
Q 2997 3528 2723 3600 
Q 2450 3672 2163 3684 
L 2163 2350 
Q 2872 2241 3206 1959 
Q 3541 1678 3541 1191 
Q 3541 663 3186 358 
Q 2831 53 2163 6 
L 2163 -941 
z
M 1850 2406 
L 1850 3688 
Q 1488 3647 1297 3481 
Q 1106 3316 1106 3041 
Q 1106 2772 1282 2622 
Q 1459 2472 1850 2406 
z
M 2163 1806 
L 2163 453 
Q 2559 506 2761 678 
Q 2963 850 2963 1131 
Q 2963 1406 2770 1568 
Q 2578 1731 2163 1806 
z
" transform="scale(0.015625)"/>
     <path id="DejaVuSans-f" d="M 750 794 
L 1409 794 
L 1409 256 
L 897 -744 
L 494 -744 
L 750 256 
L 750 794 
z
" transform="scale(0.015625)"/>
     <path id="DejaVuSans-13b0" d="M 1831 4863 
L 3431 4863 
L 3431 0 
L 2853 0 
L 2853 4384 
L 1825 4384 
Q 1516 4384 1395 4259 
Q 1275 4134 1275 3809 
L 1275 3500 
L 2222 3500 
L 2222 3053 
L 1275 3053 
L 1275 0 
L 697 0 
L 697 3053 
L 147 3053 
L 147 3500 
L 697 3500 
L 697 3744 
Q 697 4328 969 4595 
Q 1241 4863 1831 4863 
z
" transform="scale(0.015625)"/>
     <path id="DejaVuSans-c" d="M 513 4856 
L 1013 4856 
Q 1481 4119 1714 3412 
Q 1947 2706 1947 2009 
Q 1947 1309 1714 600 
Q 1481 -109 1013 -844 
L 513 -844 
Q 928 -128 1133 580 
Q 1338 1288 1338 2009 
Q 1338 2731 1133 3434 
Q 928 4138 513 4856 
z
" transform="scale(0.015625)"/>
    </defs>
    <use xlink:href="#DejaVuSans-30"/>
    <use xlink:href="#DejaVuSans-48" transform="translate(86.28125 0)"/>
    <use xlink:href="#DejaVuSans-44" transform="translate(147.8125 0)"/>
    <use xlink:href="#DejaVuSans-51" transform="translate(209.09375 0)"/>
    <use xlink:href="#DejaVuSans-3" transform="translate(272.46875 0)"/>
    <use xlink:href="#DejaVuSans-4f" transform="translate(304.25 0)"/>
    <use xlink:href="#DejaVuSans-44" transform="translate(332.03125 0)"/>
    <use xlink:href="#DejaVuSans-55" transform="translate(393.3125 0)"/>
    <use xlink:href="#DejaVuSans-4a" transform="translate(432.671875 0)"/>
    <use xlink:href="#DejaVuSans-48" transform="translate(496.15625 0)"/>
    <use xlink:href="#DejaVuSans-56" transform="translate(557.6875 0)"/>
    <use xlink:href="#DejaVuSans-57" transform="translate(609.78125 0)"/>
    <use xlink:href="#DejaVuSans-3" transform="translate(648.984375 0)"/>
    <use xlink:href="#DejaVuSans-53" transform="translate(680.765625 0)"/>
    <use xlink:href="#DejaVuSans-52" transform="translate(744.25 0)"/>
    <use xlink:href="#DejaVuSans-56" transform="translate(805.4375 0)"/>
    <use xlink:href="#DejaVuSans-56" transform="translate(857.53125 0)"/>
    <use xlink:href="#DejaVuSans-4c" transform="translate(909.625 0)"/>
    <use xlink:href="#DejaVuSans-45" transform="translate(937.40625 0)"/>
    <use xlink:href="#DejaVuSans-4f" transform="translate(1000.890625 0)"/>
    <use xlink:href="#DejaVuSans-48" transform="translate(1028.671875 0)"/>
    <use xlink:href="#DejaVuSans-3" transform="translate(1090.203125 0)"/>
    <use xlink:href="#DejaVuSans-18" transform="translate(1121.984375 0)"/>
    <use xlink:href="#DejaVuSans-10" transform="translate(1185.609375 0)"/>
    <use xlink:href="#DejaVuSans-47" transform="translate(1221.6875 0)"/>
    <use xlink:href="#DejaVuSans-44" transform="translate(1285.171875 0)"/>
    <use xlink:href="#DejaVuSans-5c" transform="translate(1346.453125 0)"/>
    <use xlink:href="#DejaVuSans-3" transform="translate(1405.640625 0)"/>
    <use xlink:href="#DejaVuSans-13af" transform="translate(1437.421875 0)"/>
    <use xlink:href="#DejaVuSans-55" transform="translate(1500.40625 0)"/>
    <use xlink:href="#DejaVuSans-56" transform="translate(1541.515625 0)"/>
    <use xlink:href="#DejaVuSans-57" transform="translate(1593.609375 0)"/>
    <use xlink:href="#DejaVuSans-10" transform="translate(1632.8125 0)"/>
    <use xlink:href="#DejaVuSans-45" transform="translate(1668.890625 0)"/>
    <use xlink:href="#DejaVuSans-55" transform="translate(1732.375 0)"/>
    <use xlink:href="#DejaVuSans-48" transform="translate(1771.28125 0)"/>
    <use xlink:href="#DejaVuSans-44" transform="translate(1832.8125 0)"/>
    <use xlink:href="#DejaVuSans-46" transform="translate(1894.09375 0)"/>
    <use xlink:href="#DejaVuSans-4b" transform="translate(1949.078125 0)"/>
    <use xlink:href="#DejaVuSans-3" transform="translate(2012.453125 0)"/>
    <use xlink:href="#DejaVuSans-49" transform="translate(2044.234375 0)"/>
    <use xlink:href="#DejaVuSans-55" transform="translate(2079.4375 0)"/>
    <use xlink:href="#DejaVuSans-44" transform="translate(2120.546875 0)"/>
    <use xlink:href="#DejaVuSans-46" transform="translate(2181.828125 0)"/>
    <use xlink:href="#DejaVuSans-57" transform="translate(2236.8125 0)"/>
    <use xlink:href="#DejaVuSans-4c" transform="translate(2276.015625 0)"/>
    <use xlink:href="#DejaVuSans-52" transform="translate(2303.796875 0)"/>
    <use xlink:href="#DejaVuSans-51" transform="translate(2364.984375 0)"/>
    <use xlink:href="#DejaVuSans-3" transform="translate(2428.359375 0)"/>
    <use xlink:href="#DejaVuSans-b" transform="translate(2460.140625 0)"/>
    <use xlink:href="#DejaVuSans-7" transform="translate(2499.15625 0)"/>
    <use xlink:href="#DejaVuSans-14" transform="translate(2562.78125 0)"/>
    <use xlink:href="#DejaVuSans-f" transform="translate(2626.40625 0)"/>
    <use xlink:href="#DejaVuSans-18" transform="translate(2658.1875 0)"/>
    <use xlink:href="#DejaVuSans-13" transform="translate(2721.8125 0)"/>
    <use xlink:href="#DejaVuSans-13" transform="translate(2785.4375 0)"/>
    <use xlink:href="#DejaVuSans-3" transform="translate(2849.0625 0)"/>
    <use xlink:href="#DejaVuSans-13b0" transform="translate(2880.84375 0)"/>
    <use xlink:href="#DejaVuSans-52" transform="translate(2943.828125 0)"/>
    <use xlink:href="#DejaVuSans-52" transform="translate(3005.015625 0)"/>
    <use xlink:href="#DejaVuSans-55" transform="translate(3066.203125 0)"/>
    <use xlink:href="#DejaVuSans-c" transform="translate(3107.3125 0)"/>
   </g>
   <!-- 23 overlapping twelve-month windows; lower is better -->
   <g transform="translate(308.533823 31.922578) scale(0.12 -0.12)">
    <defs>
     <path id="DejaVuSans-59" d="M 191 3500 
L 800 3500 
L 1894 563 
L 2988 3500 
L 3597 3500 
L 2284 0 
L 1503 0 
L 191 3500 
z
" transform="scale(0.015625)"/>
     <path id="DejaVuSans-50" d="M 3328 2828 
Q 3544 3216 3844 3400 
Q 4144 3584 4550 3584 
Q 5097 3584 5394 3201 
Q 5691 2819 5691 2113 
L 5691 0 
L 5113 0 
L 5113 2094 
Q 5113 2597 4934 2840 
Q 4756 3084 4391 3084 
Q 3944 3084 3684 2787 
Q 3425 2491 3425 1978 
L 3425 0 
L 2847 0 
L 2847 2094 
Q 2847 2600 2669 2842 
Q 2491 3084 2119 3084 
Q 1678 3084 1418 2786 
Q 1159 2488 1159 1978 
L 1159 0 
L 581 0 
L 581 3500 
L 1159 3500 
L 1159 2956 
Q 1356 3278 1631 3431 
Q 1906 3584 2284 3584 
Q 2666 3584 2933 3390 
Q 3200 3197 3328 2828 
z
" transform="scale(0.015625)"/>
     <path id="DejaVuSans-1e" d="M 750 3309 
L 1409 3309 
L 1409 2516 
L 750 2516 
L 750 3309 
z
M 750 794 
L 1409 794 
L 1409 256 
L 897 -744 
L 494 -744 
L 750 256 
L 750 794 
z
" transform="scale(0.015625)"/>
    </defs>
    <use xlink:href="#DejaVuSans-15"/>
    <use xlink:href="#DejaVuSans-16" transform="translate(63.625 0)"/>
    <use xlink:href="#DejaVuSans-3" transform="translate(127.25 0)"/>
    <use xlink:href="#DejaVuSans-52" transform="translate(159.03125 0)"/>
    <use xlink:href="#DejaVuSans-59" transform="translate(220.21875 0)"/>
    <use xlink:href="#DejaVuSans-48" transform="translate(279.40625 0)"/>
    <use xlink:href="#DejaVuSans-55" transform="translate(340.9375 0)"/>
    <use xlink:href="#DejaVuSans-4f" transform="translate(382.046875 0)"/>
    <use xlink:href="#DejaVuSans-44" transform="translate(409.828125 0)"/>
    <use xlink:href="#DejaVuSans-53" transform="translate(471.109375 0)"/>
    <use xlink:href="#DejaVuSans-53" transform="translate(534.59375 0)"/>
    <use xlink:href="#DejaVuSans-4c" transform="translate(598.078125 0)"/>
    <use xlink:href="#DejaVuSans-51" transform="translate(625.859375 0)"/>
    <use xlink:href="#DejaVuSans-4a" transform="translate(689.234375 0)"/>
    <use xlink:href="#DejaVuSans-3" transform="translate(752.71875 0)"/>
    <use xlink:href="#DejaVuSans-57" transform="translate(784.5 0)"/>
    <use xlink:href="#DejaVuSans-5a" transform="translate(823.703125 0)"/>
    <use xlink:href="#DejaVuSans-48" transform="translate(905.484375 0)"/>
    <use xlink:href="#DejaVuSans-4f" transform="translate(967.015625 0)"/>
    <use xlink:href="#DejaVuSans-59" transform="translate(994.796875 0)"/>
    <use xlink:href="#DejaVuSans-48" transform="translate(1053.984375 0)"/>
    <use xlink:href="#DejaVuSans-10" transform="translate(1115.515625 0)"/>
    <use xlink:href="#DejaVuSans-50" transform="translate(1151.59375 0)"/>
    <use xlink:href="#DejaVuSans-52" transform="translate(1249 0)"/>
    <use xlink:href="#DejaVuSans-51" transform="translate(1310.1875 0)"/>
    <use xlink:href="#DejaVuSans-57" transform="translate(1373.5625 0)"/>
    <use xlink:href="#DejaVuSans-4b" transform="translate(1412.765625 0)"/>
    <use xlink:href="#DejaVuSans-3" transform="translate(1476.140625 0)"/>
    <use xlink:href="#DejaVuSans-5a" transform="translate(1507.921875 0)"/>
    <use xlink:href="#DejaVuSans-4c" transform="translate(1589.703125 0)"/>
    <use xlink:href="#DejaVuSans-51" transform="translate(1617.484375 0)"/>
    <use xlink:href="#DejaVuSans-47" transform="translate(1680.859375 0)"/>
    <use xlink:href="#DejaVuSans-52" transform="translate(1744.34375 0)"/>
    <use xlink:href="#DejaVuSans-5a" transform="translate(1805.53125 0)"/>
    <use xlink:href="#DejaVuSans-56" transform="translate(1887.3125 0)"/>
    <use xlink:href="#DejaVuSans-1e" transform="translate(1939.40625 0)"/>
    <use xlink:href="#DejaVuSans-3" transform="translate(1973.09375 0)"/>
    <use xlink:href="#DejaVuSans-4f" transform="translate(2004.875 0)"/>
    <use xlink:href="#DejaVuSans-52" transform="translate(2032.65625 0)"/>
    <use xlink:href="#DejaVuSans-5a" transform="translate(2093.84375 0)"/>
    <use xlink:href="#DejaVuSans-48" transform="translate(2175.625 0)"/>
    <use xlink:href="#DejaVuSans-55" transform="translate(2237.15625 0)"/>
    <use xlink:href="#DejaVuSans-3" transform="translate(2278.265625 0)"/>
    <use xlink:href="#DejaVuSans-4c" transform="translate(2310.046875 0)"/>
    <use xlink:href="#DejaVuSans-56" transform="translate(2337.828125 0)"/>
    <use xlink:href="#DejaVuSans-3" transform="translate(2389.921875 0)"/>
    <use xlink:href="#DejaVuSans-45" transform="translate(2421.703125 0)"/>
    <use xlink:href="#DejaVuSans-48" transform="translate(2485.1875 0)"/>
    <use xlink:href="#DejaVuSans-57" transform="translate(2546.71875 0)"/>
    <use xlink:href="#DejaVuSans-57" transform="translate(2585.921875 0)"/>
    <use xlink:href="#DejaVuSans-48" transform="translate(2625.125 0)"/>
    <use xlink:href="#DejaVuSans-55" transform="translate(2686.65625 0)"/>
   </g>
  </g>
 </g>
 <defs>
  <clipPath id="pa822a96c43">
   <rect x="45.967188" y="57.12423" width="290.584111" height="258.674509"/>
  </clipPath>
  <clipPath id="pc61d7ec107">
   <rect x="346.291298" y="57.12423" width="290.584111" height="258.674509"/>
  </clipPath>
  <clipPath id="p28518c664b">
   <rect x="646.615409" y="57.12423" width="290.584111" height="258.674509"/>
  </clipPath>
 </defs>
</svg>
